<?xml version="1.0" encoding="utf-8"?>
<!-- Generator: Adobe Illustrator 25.4.1, SVG Export Plug-In . SVG Version: 6.00 Build 0)  -->
<svg version="1.1" id="レイヤー_1" xmlns="http://www.w3.org/2000/svg" xmlns:xlink="http://www.w3.org/1999/xlink" x="0px"
	 y="0px" viewBox="0 0 141.7 141.7" style="enable-background:new 0 0 141.7 141.7;" xml:space="preserve">
<style type="text/css">
	.st0{fill:#EA8C3A;}
	.st1{fill:#B5B5B6;}
	.st2{fill:#00A7CB;}
	.st3{fill:#FAC311;}
	.st4{fill:#FFFFFF;}
	.st5{fill:#A9C3CB;}
</style>
<g>
	<g>
		<path class="st1" d="M119.9,80.4c-0.5,0-0.9,0-1.3,0.1c-2.7-11.4-13-19.9-25.3-19.9c-2.3,0-4.5,0.3-6.6,0.9l5.3,3.9
			c0.5,0.4,1,0.9,1.4,1.6c0.3,0.6,0.5,1.4,0.5,2.1c0,0.7-0.2,1.5-0.5,2.1c-0.3,0.6-0.8,1.2-1.4,1.6l-9.5,7c-0.3,0.2-0.7,0.5-1.1,0.6
			c-0.4,0.2-0.9,0.3-1.5,0.3c-0.2,0-0.5,0-0.8-0.1c-0.3,0.7-0.5,1.3-0.8,2c0.4,0.3,0.8,0.6,1.1,1c0.2,0.3,0.4,0.6,0.5,0.9
			c0.2,0.4,0.2,0.8,0.3,1.1L81.8,97c0,0.2,0.1,0.5,0.1,0.8c0,0.8-0.2,1.7-0.7,2.5c-0.5,0.8-1.2,1.4-2.1,1.7
			c-0.6,0.2-1.1,0.3-1.7,0.3c-0.3,0-0.5,0-0.8-0.1l0,0L65,100.4c-0.4-0.1-0.8-0.2-1.3-0.4c-0.4-0.2-0.9-0.5-1.3-0.9
			c-0.2-0.2-0.4-0.5-0.6-0.8c-0.6,0.3-1.3,0.5-1.9,0.8c0.1,0.3,0.1,0.7,0.1,1c0,0.6-0.1,1.1-0.3,1.5c-0.2,0.4-0.4,0.8-0.6,1.1l0,0
			l-2.7,3.6c3.1,3.7,7.7,6.1,13,6.1h50.4c8.9,0,16.1-7.2,16.1-16.1C136,87.6,128.8,80.4,119.9,80.4z"/>
	</g>
	<g>
		<g>
			<path class="st0" d="M41.3,38L41.3,38H42h0h0h1.3h0.3h10h0.3h1.3h0h0h0.7c0.6,0,0.9-0.2,1.1-0.6c0.1-0.2,0-0.4-0.1-0.6
				c-0.1-0.1-0.1-0.2-0.2-0.4l-0.8-1.1l-0.1-0.1l0,0L49.7,27c-0.6-0.9-1.6-0.9-2.3,0l-6.1,8.3l0,0l-0.1,0.1l-0.8,1.1
				c-0.1,0.1-0.2,0.2-0.2,0.4c-0.1,0.2-0.1,0.5-0.1,0.6C40.3,37.8,40.7,38,41.3,38z"/>
		</g>
		<g>
			<path class="st0" d="M18.4,39.9L20,50l0,0.1l0.1,0.7l0,0l0,0l0.1,0.8c0,0.2,0.1,0.3,0.1,0.4c0.2,0.6,0.7,0.7,1.3,0.3h0
				c0.1-0.1,0.2-0.1,0.2-0.2l0.4-0.4l0.1-0.1h0l0.6-0.6l0.1-0.1l7.2-7.2l0.2-0.2l0.7-0.7h0l0.1-0.1h0l0.9-0.9
				c0.2-0.2,0.3-0.4,0.4-0.6c0.1-0.4-0.1-0.7-0.5-0.9c-0.1,0-0.3-0.1-0.4-0.1L20,38.3C19,38.2,18.3,38.9,18.4,39.9
				C18.4,39.9,18.4,39.9,18.4,39.9z"/>
		</g>
		<g>
			<path class="st0" d="M16.9,60.2c-0.1,0.1-0.2,0.1-0.4,0.2l-9.5,7c-0.5,0.4-0.7,0.9-0.6,1.4c0.1,0.3,0.3,0.7,0.6,0.9l7.9,5.8
				l0.2,0.1l0.9,0.6h0l0.1,0.1l0.4,0.3c0.1,0.1,0.2,0.2,0.4,0.2c0.5,0.2,1,0,1.1-0.5c0-0.1,0.1-0.3,0.1-0.5v-0.9v-0.6v0v-0.1V63.6
				v-0.1v0v-0.6v-1.3v-0.5C18.1,60.3,17.6,59.9,16.9,60.2z"/>
		</g>
		<g>
			<path class="st0" d="M32.4,95.5c-0.1-0.1-0.1-0.2-0.2-0.2L21.9,84.9c-0.6-0.6-1.3-0.5-1.5,0.1c0,0.1-0.1,0.3-0.1,0.4l-0.3,1.8
				l-0.1,0.5l0,0L18.4,97c0,0.2,0,0.3,0,0.5c0.1,0.8,0.7,1.3,1.6,1.1l9.3-1.4l0.3,0l1.2-0.2h0l0.1,0h0l-0.5,0.5h0l0.5-0.5l0.8-0.1
				c0.2,0,0.3-0.1,0.4-0.1c0.3-0.1,0.5-0.3,0.5-0.5C32.7,96,32.6,95.8,32.4,95.5L32.4,95.5z"/>
		</g>
		<g>
			<path class="st0" d="M56.9,100.2c0-0.1,0-0.1,0.1-0.2c0.2-0.6-0.2-1-1.1-1H53H41.3c-0.8,0-1.2,0.4-1.1,1c0,0.1,0,0.1,0.1,0.2
				c0.1,0.1,0.1,0.2,0.2,0.4l0.8,1.1l0.2,0.3l0,0l0.4,0.5l0.1,0.1l5.5,7.4c0.6,0.9,1.6,0.9,2.3,0l4.8-6.6l0.6-0.9l0.1-0.1l0.5-0.6
				l0.1-0.2l0.8-1.1C56.8,100.4,56.8,100.3,56.9,100.2z"/>
		</g>
		<g>
			<path class="st0" d="M65.1,96.7c0.1,0,0.3,0.1,0.4,0.1l0.8,0.1l0.1,0h0l1.2,0.2l0.3,0l9.3,1.4c0.9,0.1,1.5-0.4,1.6-1.1
				c0-0.2,0-0.3,0-0.5l-1.4-9.3l0,0l-0.1-0.5v0L77,85.4c0-0.2-0.1-0.3-0.1-0.4c-0.3-0.7-0.9-0.8-1.5-0.1l-0.2,0.2L65,95.2
				c-0.4,0.4-0.5,0.8-0.4,1.1C64.6,96.5,64.8,96.6,65.1,96.7z"/>
		</g>
		<g>
			<path class="st0" d="M80.3,76.8c0.1-0.1,0.2-0.1,0.4-0.2l0.4-0.3l0.2-0.1l0,0l0.8-0.6l0.2-0.1l7.9-5.8c0.3-0.3,0.5-0.6,0.6-0.9
				c0.1-0.5-0.1-1-0.6-1.4l-6.7-4.9l-2.8-2.1c-0.1-0.1-0.2-0.2-0.4-0.2c-0.7-0.3-1.2,0.1-1.2,1v0.5v1.3v0.6v0v0.1v1.2v9.5v0.1v0v0.6
				v0v0.9C79.1,76.7,79.6,77.1,80.3,76.8z"/>
		</g>
		<g>
			<path class="st0" d="M65,41.8l0.2,0.2l0,0l0.6,0.6l0.1,0.1h0l0.6,0.6l0.1,0.1l7.2,7.2l0.2,0.2l0.7,0.7h0l0.1,0.1l0,0l0.4,0.4
				c0.6,0.6,1.3,0.5,1.5-0.1c0-0.1,0.1-0.3,0.1-0.4l0.1-0.8l0.1-0.7l0-0.1l1.5-10.1c0,0,0,0,0,0c0.1-1-0.6-1.7-1.6-1.6l-11.6,1.8
				c-0.2,0-0.3,0.1-0.4,0.1c-0.5,0.2-0.6,0.5-0.5,0.9C64.6,41.3,64.7,41.5,65,41.8z"/>
		</g>
		<g>
			<path class="st0" d="M74.4,68.7C74.4,68.7,74.4,68.7,74.4,68.7c0-0.1,0-0.2,0-0.2c0-14.3-11.6-25.8-25.8-25.8
				c-14.3,0-25.8,11.6-25.8,25.8c0,0.1,0,0.2,0,0.2c0.1,14.1,11.6,25.6,25.8,25.6c1.4,0,2.8-0.1,4.1-0.3
				C64.9,92,74.3,81.4,74.4,68.7z"/>
		</g>
	</g>
</g>
</svg>
