<?xml version="1.0" encoding="utf-8"?>
<!-- Generator: Adobe Illustrator 25.4.1, SVG Export Plug-In . SVG Version: 6.00 Build 0)  -->
<svg version="1.1" id="レイヤー_1" xmlns="http://www.w3.org/2000/svg" xmlns:xlink="http://www.w3.org/1999/xlink" x="0px"
	 y="0px" viewBox="0 0 141.7 141.7" style="enable-background:new 0 0 141.7 141.7;" xml:space="preserve">
<style type="text/css">
	.st0{fill:#EA8C3A;}
	.st1{fill:#B5B5B6;}
	.st2{fill:#00A7CB;}
	.st3{fill:#FAC311;}
	.st4{fill:#FFFFFF;}
	.st5{fill:#A9C3CB;}
</style>
<g>
	<path class="st2" d="M139.8,88.5c0-0.1-0.1-0.2-0.1-0.3c0-0.2-0.1-0.4-0.1-0.6c0-0.2-0.1-0.3-0.1-0.5c-0.1-0.2-0.1-0.5-0.2-0.7
		c-2.2-8.7-7.2-16.3-13.9-21.9c-6.9-5.7-15.8-9.3-25.4-9.6v-6.8c0-0.7-0.6-1.3-1.3-1.3c-0.7,0-1.3,0.6-1.3,1.3v6.8
		c-8.1,0.3-15.6,2.8-21.9,7l2.1,1.5l6.4,4.7c0.5,0.4,1,0.9,1.3,1.5c0.3,0.6,0.5,1.3,0.5,2c0,0.7-0.2,1.4-0.5,2
		c-0.3,0.6-0.8,1.1-1.3,1.5l-8,5.9l-1.1,0.8c-0.3,0.2-0.7,0.4-1.1,0.6c-0.4,0.2-0.9,0.3-1.5,0.3c-0.2,0-0.5,0-0.7-0.1
		c0,0,0,0.1-0.1,0.1c2.7,0,5.2,0.8,7.4,2c2.2,1.3,4.1,3.2,5.4,5.4c0.1,0.2,0.4,0.4,0.7,0.4c0.3,0,0.5-0.1,0.7-0.4
		c1.3-2.2,3.2-4.1,5.4-5.4c1.2-0.7,2.5-1.2,3.9-1.6c0.8-0.2,1.6-0.3,2.4-0.4v2.4v24.5v0c0,1.5,0.6,2.8,1.6,3.8c1,1,2.3,1.6,3.8,1.6
		c1.5,0,2.8-0.6,3.8-1.6c1-1,1.6-2.3,1.6-3.8c0-0.7-0.6-1.3-1.3-1.3c-0.7,0-1.3,0.6-1.3,1.3c0,0.4-0.1,0.7-0.2,1
		c-0.2,0.5-0.5,0.9-1,1.2c-0.4,0.3-0.9,0.5-1.5,0.5c-0.4,0-0.7-0.1-1-0.2c-0.5-0.2-0.9-0.5-1.2-1c-0.3-0.4-0.5-0.9-0.5-1.5V85.3
		v-2.4c0.8,0.1,1.6,0.2,2.4,0.4c1.4,0.4,2.7,0.9,3.9,1.6c2.2,1.3,4.1,3.2,5.4,5.4c0.1,0.2,0.4,0.4,0.7,0.4c0.3,0,0.5-0.1,0.7-0.4
		c1.3-2.2,3.2-4.1,5.4-5.4c2.2-1.3,4.8-2.1,7.6-2.1c2.5,0,4.9,0.6,7,1.7c1.5,0.8,2.8,1.8,4,3c0.1,0.2,0.3,0.3,0.4,0.5
		c0.2,0.2,0.4,0.4,0.5,0.6c0,0.1,0.1,0.1,0.1,0.2c0,0,0,0,0,0c0.1,0.1,0.1,0.2,0.2,0.3c0.2,0.3,0.6,0.4,0.9,0.3
		C139.7,89.2,139.8,88.9,139.8,88.5z"/>
</g>
<g>
	<g>
		<path class="st0" d="M35.1,41.9L35.1,41.9h0.7h0h0H37h0.3h9.6h0.3h1.2h0h0h0h0.7c0.6,0,0.9-0.2,1-0.5c0.1-0.2,0-0.4-0.1-0.6
			c0-0.1-0.1-0.2-0.2-0.3l-0.8-1l-0.1-0.1l0,0l-5.9-8c-0.6-0.8-1.6-0.8-2.2,0l-5.9,8l0,0l-0.1,0.1l-0.8,1c-0.1,0.1-0.1,0.2-0.2,0.3
			C34,41,34,41.2,34,41.4C34.1,41.7,34.5,41.9,35.1,41.9z"/>
	</g>
	<g>
		<path class="st0" d="M13.1,43.7l1.5,9.7l0,0.1l0.1,0.7v0l0.1,0.7c0,0.1,0.1,0.3,0.1,0.4c0.2,0.6,0.7,0.7,1.2,0.3
			c0.1-0.1,0.2-0.1,0.2-0.2l0.4-0.4l0.1-0.1l0.6-0.6l0.1-0.1l6.9-6.9l0.1-0.1l0.7-0.7l0,0l0.1-0.1l0,0l0.8-0.8
			c0.2-0.2,0.3-0.4,0.4-0.6c0.1-0.4-0.1-0.7-0.5-0.9c-0.1,0-0.2-0.1-0.4-0.1l-11.2-1.7C13.6,42.1,13,42.7,13.1,43.7
			C13.1,43.7,13.1,43.7,13.1,43.7z"/>
	</g>
	<g>
		<path class="st0" d="M11.6,63.2c-0.1,0-0.2,0.1-0.3,0.2l-9.1,6.7c-0.5,0.4-0.7,0.8-0.6,1.3c0.1,0.3,0.3,0.6,0.6,0.9l7.6,5.6
			L9.9,78l0.8,0.6h0l0.1,0.1l0.4,0.3c0.1,0.1,0.2,0.1,0.3,0.2c0.5,0.2,0.9,0,1.1-0.5c0-0.1,0.1-0.3,0.1-0.4v-0.8v-0.6v0v-0.1V66.5
			v-0.1v0v-0.6v0v-1.3v-0.4C12.8,63.3,12.3,62.9,11.6,63.2z"/>
	</g>
	<g>
		<path class="st0" d="M26.3,96.9l-10-10c-0.6-0.6-1.2-0.5-1.5,0.1c0,0.1-0.1,0.2-0.1,0.4l-0.3,1.8l-0.1,0.5l0,0l-1.4,8.9
			c0,0.2,0,0.3,0,0.5c0.1,0.7,0.7,1.2,1.5,1.1l8.9-1.4l0.3,0l1.1-0.2h0l0.1,0h0l-0.5,0.5h0l0.5-0.5l0.7-0.1c0.1,0,0.3-0.1,0.4-0.1
			c0.3-0.1,0.4-0.3,0.5-0.5c0.1-0.2,0-0.5-0.2-0.8C26.5,97.1,26.4,97,26.3,96.9z"/>
	</g>
	<g>
		<path class="st0" d="M49.1,100.5H35.1c-0.8,0-1.2,0.4-1,1c0,0.1,0,0.1,0.1,0.2c0,0.1,0.1,0.2,0.2,0.3l0.8,1l0.2,0.3l0.4,0.5
			l0.1,0.1l5.3,7.1c0.6,0.8,1.6,0.8,2.2,0l5.3-7.1l0.1-0.1l0.5-0.6l0.1-0.2l0.8-1c0.1-0.1,0.1-0.2,0.2-0.3c0-0.1,0-0.1,0.1-0.2
			C50.3,100.9,49.9,100.5,49.1,100.5z"/>
	</g>
	<g>
		<path class="st0" d="M69.7,89.8L69.7,89.8l-0.1-0.5l0,0l-0.3-1.8c0-0.1-0.1-0.3-0.1-0.4c-0.3-0.7-0.9-0.7-1.5-0.1l-0.2,0.2h0
			l-9.7,9.7c-0.4,0.4-0.5,0.7-0.4,1c0.1,0.2,0.2,0.4,0.5,0.5c0.1,0,0.2,0.1,0.4,0.1l0.7,0.1l0.1,0l0,0l1.1,0.2l0.3,0l8.9,1.4
			c0.8,0.1,1.5-0.3,1.5-1.1c0-0.1,0-0.3,0-0.5L69.7,89.8z"/>
	</g>
	<g>
		<path class="st0" d="M72.6,79.2c0.1,0,0.2-0.1,0.3-0.2l0.4-0.3l0.2-0.1h0l0.7-0.5l0.2-0.1l7.6-5.6c0.3-0.2,0.5-0.6,0.6-0.9
			c0.1-0.5-0.1-1-0.6-1.3L75.1,65l-2-1.5l-0.2-0.1c-0.1-0.1-0.2-0.1-0.3-0.2c-0.7-0.3-1.1,0.1-1.1,0.9v0.4v0.3v1v0.6v0v0.1v1.6v8.7
			v0.1v0v0.6v0v0.8C71.4,79.1,71.9,79.5,72.6,79.2z"/>
	</g>
	<g>
		<path class="st0" d="M57.9,45.5l0.2,0.2l0.6,0.6l0.1,0.1l0,0l0.6,0.6l0.1,0.1l6.9,6.9l0.1,0.1l0.7,0.7l0.1,0.1h0l0.4,0.4
			c0.6,0.6,1.2,0.5,1.5-0.1c0-0.1,0.1-0.2,0.1-0.4l0.1-0.7l0.1-0.7l0-0.1l1.5-9.7c0,0,0,0,0,0c0.1-1-0.6-1.7-1.5-1.5l-11.2,1.7
			c-0.1,0-0.3,0.1-0.4,0.1c-0.4,0.2-0.6,0.5-0.5,0.9C57.5,45.1,57.7,45.3,57.9,45.5z"/>
	</g>
	<g>
		<path class="st0" d="M59.8,88.6C59.8,88.6,59.8,88.6,59.8,88.6c0.1-0.1,0.1-0.1,0.1-0.1c0.9-0.9,1.6-1.8,2.4-2.8
			c0.9-1.3,1.7-2.6,2.3-4c1.2-2.6,2-5.4,2.2-8.4c0.1-0.6,0.1-1.2,0.1-1.9c0-0.1,0-0.1,0-0.2c0-0.6,0-1.2-0.1-1.8
			c-0.1-1.1-0.2-2.1-0.4-3.1c-2.3-11.4-12.3-19.9-24.3-19.9c-13.7,0-24.8,11.1-24.8,24.8c0,0.1,0,0.1,0,0.2C17.4,85,28.5,96,42.1,96
			c5.4,0,10.4-1.7,14.5-4.7c1-0.7,2-1.6,2.9-2.5C59.6,88.8,59.7,88.7,59.8,88.6z"/>
	</g>
</g>
</svg>
