<?xml version="1.0" encoding="utf-8"?>
<!-- Generator: Adobe Illustrator 25.4.1, SVG Export Plug-In . SVG Version: 6.00 Build 0)  -->
<svg version="1.1" id="レイヤー_1" xmlns="http://www.w3.org/2000/svg" xmlns:xlink="http://www.w3.org/1999/xlink" x="0px"
	 y="0px" viewBox="0 0 141.7 141.7" style="enable-background:new 0 0 141.7 141.7;" xml:space="preserve">
<style type="text/css">
	.st0{fill:#EA8C3A;}
	.st1{fill:#B5B5B6;}
	.st2{fill:#00A7CB;}
	.st3{fill:#FAC311;}
	.st4{fill:#FFFFFF;}
	.st5{fill:#A9C3CB;}
</style>
<g>
	<g>
		<path class="st0" d="M60.1,24.5h22.2c1.6,0,2.1-1.1,1.2-2.3L72.9,7.8c-0.9-1.3-2.5-1.3-3.4,0L58.9,22.1
			C58,23.4,58.5,24.5,60.1,24.5z"/>
	</g>
	<g>
		<path class="st0" d="M28.2,45c0.2,1.6,1.4,1.9,2.5,0.8l15.7-15.7c1.1-1.1,0.8-2.3-0.8-2.5L28,25c-1.6-0.2-2.7,0.9-2.4,2.4L28.2,45
			z"/>
	</g>
	<g>
		<path class="st0" d="M22.7,58.4L8.3,68.9c-1.3,0.9-1.3,2.5,0,3.4l14.4,10.5c1.3,0.9,2.3,0.4,2.3-1.2V59.5
			C25,57.9,24,57.4,22.7,58.4z"/>
	</g>
	<g>
		<path class="st0" d="M30.7,95.4c-1.1-1.1-2.3-0.8-2.5,0.8l-2.7,17.6c-0.2,1.6,0.9,2.7,2.4,2.4l17.6-2.7c1.6-0.2,1.9-1.4,0.8-2.5
			L30.7,95.4z"/>
	</g>
	<g>
		<path class="st0" d="M82.3,116.8H60.1c-1.6,0-2.1,1.1-1.2,2.3l10.5,14.4c0.9,1.3,2.5,1.3,3.4,0l10.5-14.4
			C84.4,117.8,83.9,116.8,82.3,116.8z"/>
	</g>
	<g>
		<path class="st0" d="M114.2,96.2c-0.2-1.6-1.4-1.9-2.5-0.8L96,111.1c-1.1,1.1-0.8,2.3,0.8,2.5l17.6,2.7c1.6,0.2,2.7-0.9,2.4-2.4
			L114.2,96.2z"/>
	</g>
	<g>
		<path class="st0" d="M134,68.9l-14.4-10.5c-1.3-0.9-2.3-0.4-2.3,1.2v22.2c0,1.6,1.1,2.1,2.3,1.2L134,72.3
			C135.3,71.4,135.3,69.8,134,68.9z"/>
	</g>
	<g>
		<path class="st0" d="M114.4,25l-17.6,2.7c-1.6,0.2-1.9,1.4-0.8,2.5l15.7,15.7c1.1,1.1,2.3,0.8,2.5-0.8l2.7-17.6
			C117.1,25.8,116,24.7,114.4,25z"/>
	</g>
	<g>
		<circle class="st0" cx="71.2" cy="70.6" r="39.1"/>
	</g>
</g>
</svg>
