<?xml version="1.0" encoding="utf-8"?>
<!-- Generator: Adobe Illustrator 25.4.1, SVG Export Plug-In . SVG Version: 6.00 Build 0)  -->
<svg version="1.1" id="レイヤー_1" xmlns="http://www.w3.org/2000/svg" xmlns:xlink="http://www.w3.org/1999/xlink" x="0px"
	 y="0px" viewBox="0 0 141.7 141.7" style="enable-background:new 0 0 141.7 141.7;" xml:space="preserve">
<style type="text/css">
	.st0{fill:#EA8C3A;}
	.st1{fill:#B5B5B6;}
	.st2{fill:#00A7CB;}
	.st3{fill:#FAC311;}
	.st4{fill:#FFFFFF;}
	.st5{fill:#A9C3CB;}
</style>
<g>
	<g>
		<g>
			<g>
				<path class="st0" d="M85.7,36.9h15.1c1.1,0,1.5-0.7,0.8-1.6l-7.2-9.8c-0.6-0.9-1.7-0.9-2.3,0l-7.2,9.8
					C84.3,36.1,84.6,36.9,85.7,36.9z M75.8,39l-12-1.8c-1.1-0.2-1.8,0.6-1.7,1.7l1.8,12c0,0.2,0.1,0.4,0.2,0.5
					c0.4,0.1,0.7,0.2,1.1,0.3c0.1-0.1,0.3-0.2,0.4-0.3l10.7-10.7C77.2,40,76.9,39.2,75.8,39z M122.5,85.7c-0.2-1.1-0.9-1.3-1.7-0.6
					l-10.7,10.7c-0.8,0.8-0.5,1.5,0.6,1.7l12,1.8c1.1,0.2,1.8-0.6,1.7-1.7L122.5,85.7z M136.1,67.1l-9.8-7.2
					c-0.9-0.6-1.6-0.3-1.6,0.8v15.1c0,1.1,0.7,1.5,1.6,0.8l9.8-7.2C136.9,68.8,136.9,67.7,136.1,67.1z M122.7,37.2l-12,1.8
					c-1.1,0.2-1.3,0.9-0.6,1.7l10.7,10.7c0.8,0.8,1.5,0.5,1.7-0.6l1.8-12C124.5,37.8,123.8,37,122.7,37.2z M119.9,68.3
					c0-14.7-11.9-26.6-26.6-26.6c-9.5,0-17.7,4.9-22.5,12.4c1.9,1,3.7,2.2,5.4,3.6c5.3,4.2,9.3,9.9,11.4,16.5
					c5.9,0.2,11.3,2.7,15.2,6.6c2.6,2.6,4.6,5.8,5.7,9.4C115.4,85.3,119.9,77.3,119.9,68.3z"/>
			</g>
		</g>
	</g>
	<g>
		<path class="st1" d="M86.8,77.3c-0.5,0-1.1,0-1.6,0.1c-2.1-8.9-8-16.3-15.9-20.5c-4.4-2.3-9.4-3.6-14.6-3.6
			c-14.1,0-26,9.3-30,22.1C13.9,76,5.5,84.9,5.5,95.7c0,11.3,9.1,20.4,20.4,20.4h60.9c10.7,0,19.4-8.7,19.4-19.4
			c0-1.7-0.2-3.3-0.6-4.9C103.4,83.5,95.8,77.3,86.8,77.3z"/>
	</g>
</g>
</svg>
