<?xml version="1.0" encoding="utf-8"?>
<!-- Generator: Adobe Illustrator 25.4.1, SVG Export Plug-In . SVG Version: 6.00 Build 0)  -->
<svg version="1.1" id="レイヤー_1" xmlns="http://www.w3.org/2000/svg" xmlns:xlink="http://www.w3.org/1999/xlink" x="0px"
	 y="0px" viewBox="0 0 141.7 141.7" style="enable-background:new 0 0 141.7 141.7;" xml:space="preserve">
<style type="text/css">
	.st0{fill:#EA8C3A;}
	.st1{fill:#B5B5B6;}
	.st2{fill:#00A7CB;}
	.st3{fill:#FAC311;}
	.st4{fill:#FFFFFF;}
	.st5{fill:#A9C3CB;}
</style>
<g>
	<g>
		<path class="st2" d="M137,82.2c0-0.1-0.1-0.2-0.1-0.3c0-0.2-0.1-0.4-0.1-0.6c0-0.2-0.1-0.3-0.1-0.5c-0.1-0.2-0.1-0.5-0.2-0.7
			c-2.3-8.7-7.2-16.4-14-21.9c-7-5.8-15.8-9.3-25.5-9.6v-6.8c0-0.7-0.6-1.4-1.4-1.4c-0.7,0-1.4,0.6-1.4,1.4v6.8
			c-8.4,0.3-16.2,3-22.6,7.4c0.1,0.3,0.2,0.6,0.3,0.9c0.8,0,1.6,0.1,2.3,0.2c4,0.6,7.7,2.6,10.4,5.3c3.2,3.2,5.3,7.6,5.5,12.5
			c0,0.3,0,0.6,0,0.9c0,0.6,0,1.1-0.1,1.7c0.5-0.2,1.1-0.4,1.6-0.5c0.8-0.2,1.6-0.3,2.4-0.4V79v24.6v0c0,1.5,0.6,2.8,1.6,3.8
			c1,1,2.3,1.6,3.8,1.6c1.5,0,2.8-0.6,3.8-1.6c1-1,1.6-2.3,1.6-3.8c0-0.7-0.6-1.4-1.4-1.4c-0.7,0-1.4,0.6-1.4,1.4
			c0,0.4-0.1,0.7-0.2,1c-0.2,0.5-0.5,0.9-1,1.2c-0.4,0.3-0.9,0.5-1.5,0.5c-0.4,0-0.7-0.1-1-0.2c-0.5-0.2-0.9-0.5-1.2-1
			c-0.3-0.4-0.5-0.9-0.5-1.5V79v-2.4c0.8,0.1,1.6,0.2,2.4,0.4c1.4,0.4,2.7,0.9,3.9,1.6c2.3,1.3,4.1,3.2,5.5,5.4
			c0.1,0.2,0.4,0.4,0.7,0.4c0.3,0,0.5-0.1,0.7-0.4c1.3-2.2,3.2-4.1,5.5-5.4c2.3-1.3,4.9-2.1,7.7-2.1c2.5,0,4.9,0.6,7,1.7
			c1.5,0.8,2.8,1.8,4,3c0.1,0.2,0.3,0.3,0.4,0.5c0.2,0.2,0.4,0.4,0.5,0.6c0,0,0,0,0,0c0,0.1,0.1,0.1,0.1,0.2h0
			c0.1,0.1,0.1,0.2,0.2,0.3c0.2,0.3,0.6,0.4,0.9,0.3C136.9,82.9,137.1,82.5,137,82.2z"/>
	</g>
	<g>
		<path class="st1" d="M71.4,59.5c-0.2,0-0.3,0-0.5,0c-0.3,0-0.6,0-0.9,0c-0.2-0.7-0.3-1.3-0.6-2c-0.3-0.8-0.6-1.6-0.9-2.4
			c-4.1-9.3-13.3-15.8-24.1-15.8c-11.8,0-21.8,7.8-25.1,18.5c-8.9,0.6-16,8-16,17.1c0,9.4,7.7,17.1,17.1,17.1h51
			c5.2,0,9.8-2.5,12.8-6.3c0.2-0.3,0.4-0.5,0.6-0.8c0.1-0.2,0.3-0.4,0.4-0.6c1-1.6,1.7-3.4,2.1-5.4c0.2-1,0.3-2,0.3-3
			c0-0.1,0-0.1,0-0.2C87.7,66.8,80.4,59.5,71.4,59.5z"/>
	</g>
</g>
</svg>
