<?xml version="1.0" encoding="utf-8"?>
<!-- Generator: Adobe Illustrator 25.4.1, SVG Export Plug-In . SVG Version: 6.00 Build 0)  -->
<svg version="1.1" id="レイヤー_1" xmlns="http://www.w3.org/2000/svg" xmlns:xlink="http://www.w3.org/1999/xlink" x="0px"
	 y="0px" viewBox="0 0 141.7 141.7" style="enable-background:new 0 0 141.7 141.7;" xml:space="preserve">
<style type="text/css">
	.st0{fill:#EA8C3A;}
	.st1{fill:#B5B5B6;}
	.st2{fill:#00A7CB;}
	.st3{fill:#FAC311;}
	.st4{fill:#FFFFFF;}
	.st5{fill:#A9C3CB;}
</style>
<path class="st1" d="M122.4,39c-0.3-1.5-1.7-2.6-3.3-2.6h-18.2H73.6H55.4c-1.6,0-3,1-3.3,2.6c-0.3,2,1.2,3.7,3.1,3.7h18.4h27.3h18.4
	C121.2,42.8,122.7,41,122.4,39z"/>
<path class="st1" d="M103.4,23.6c-0.3-1.5-1.7-2.6-3.3-2.6H82H54.7H36.5c-1.6,0-3,1-3.3,2.6c-0.3,2,1.2,3.7,3.1,3.7h18.4H82h18.4
	C102.3,27.3,103.8,25.6,103.4,23.6z"/>
<path class="st1" d="M88.9,54.5c-0.3-1.5-1.7-2.6-3.3-2.6H67.5H40.1H22c-1.6,0-3,1-3.3,2.6c-0.3,2,1.2,3.7,3.1,3.7h18.4h27.3h18.4
	C87.7,58.2,89.3,56.4,88.9,54.5z"/>
<path class="st1" d="M131.6,69.9c-0.3-1.5-1.7-2.6-3.3-2.6h-18.2H82.8H64.6c-1.6,0-3,1-3.3,2.6c-0.3,2,1.2,3.7,3.1,3.7h18.4h27.3
	h18.4C130.4,73.6,131.9,71.9,131.6,69.9z"/>
<path class="st1" d="M86.4,85.3c-0.3-1.5-1.7-2.6-3.3-2.6H64.9H37.6H19.4c-1.6,0-3,1-3.3,2.6c-0.3,2,1.2,3.7,3.1,3.7h18.4h27.3h18.4
	C85.2,89,86.7,87.3,86.4,85.3z"/>
<path class="st1" d="M116.9,100.7c-0.3-1.5-1.7-2.6-3.3-2.6H95.5H68.1H50c-1.6,0-3,1-3.3,2.6c-0.3,2,1.2,3.7,3.1,3.7h18.4h27.3h18.4
	C115.7,104.4,117.3,102.7,116.9,100.7z"/>
<path class="st1" d="M104.9,116.1c-0.3-1.5-1.7-2.6-3.3-2.6H83.5H56.2H38c-1.6,0-3,1-3.3,2.6c-0.3,2,1.2,3.7,3.1,3.7h18.4h27.3h18.4
	C103.8,119.8,105.3,118.1,104.9,116.1z"/>
</svg>
