<?xml version="1.0" encoding="utf-8"?>
<!-- Generator: Adobe Illustrator 25.4.1, SVG Export Plug-In . SVG Version: 6.00 Build 0)  -->
<svg version="1.1" id="レイヤー_1" xmlns="http://www.w3.org/2000/svg" xmlns:xlink="http://www.w3.org/1999/xlink" x="0px"
	 y="0px" viewBox="0 0 141.7 141.7" style="enable-background:new 0 0 141.7 141.7;" xml:space="preserve">
<style type="text/css">
	.st0{fill:#EA8C3A;}
	.st1{fill:#B5B5B6;}
	.st2{fill:#00A7CB;}
	.st3{fill:#FAC311;}
	.st4{fill:#FFFFFF;}
	.st5{fill:#A9C3CB;}
</style>
<g>
	<circle class="st4" cx="63.7" cy="59" r="2.6"/>
	<path class="st4" d="M63.1,68.8c-0.8,0.1-1.4,0.9-1.3,1.7l0,0c0.4,2.3,1.5,4.4,3.2,5.9c1.7,1.5,3.9,2.4,6.4,2.4
		c2.4,0,4.7-0.9,6.3-2.4c1.7-1.5,2.9-3.5,3.2-5.9c0.1-0.8-0.4-1.6-1.3-1.7c-0.8-0.1-1.6,0.4-1.7,1.3c-0.2,1.6-1.1,3-2.2,4
		c-1.2,1-2.7,1.6-4.4,1.6c-1.7,0-3.2-0.6-4.4-1.6c-1.2-1-2-2.4-2.2-4C64.7,69.3,63.9,68.7,63.1,68.8z"/>
	<path class="st4" d="M79.2,61.6c1.4,0,2.6-1.2,2.6-2.6c0-1.4-1.2-2.6-2.6-2.6c-1.4,0-2.6,1.2-2.6,2.6
		C76.6,60.5,77.8,61.6,79.2,61.6z"/>
	<g>
		<g>
			<path class="st5" d="M52.4,80.9c-6,5.3-9.9,13.1-9.9,21.7c0,15.9,12.9,28.9,28.9,28.9c15.9,0,28.9-12.9,28.9-28.9
				c0-8.7-3.8-16.4-9.9-21.7c2.6-3.7,4.1-8.3,4.1-13.2c0-12.8-10.4-23.1-23.1-23.1c-12.8,0-23.1,10.4-23.1,23.1
				C48.3,72.6,49.8,77.1,52.4,80.9z M79.2,56.4c1.4,0,2.6,1.2,2.6,2.6c0,1.4-1.2,2.6-2.6,2.6c-1.4,0-2.6-1.2-2.6-2.6
				C76.6,57.6,77.8,56.4,79.2,56.4z M67.1,74.1c1.2,1,2.7,1.6,4.4,1.6c1.7,0,3.2-0.6,4.4-1.6c1.2-1,2-2.4,2.2-4
				c0.1-0.8,0.9-1.4,1.7-1.3c0.8,0.1,1.4,0.9,1.3,1.7c-0.4,2.3-1.5,4.4-3.2,5.9c-1.7,1.5-3.9,2.4-6.3,2.4c-2.4,0-4.7-0.9-6.4-2.4
				c-1.7-1.5-2.9-3.5-3.2-5.9l0,0c-0.1-0.8,0.4-1.6,1.3-1.7c0.8-0.1,1.6,0.4,1.7,1.3C65.1,71.7,65.9,73.1,67.1,74.1z M63.7,56.4
				c1.4,0,2.6,1.2,2.6,2.6c0,1.4-1.2,2.6-2.6,2.6c-1.4,0-2.6-1.2-2.6-2.6C61.1,57.6,62.3,56.4,63.7,56.4z"/>
		</g>
	</g>
	<g>
		<ellipse transform="matrix(0.7071 -0.7071 0.7071 0.7071 3.828 93.9293)" class="st5" cx="115.3" cy="42.3" rx="5" ry="5"/>
	</g>
	<g>
		<circle class="st5" cx="114.3" cy="76.9" r="5"/>
	</g>
	<g>
		<path class="st5" d="M39.1,28.5c2.8,0,5-2.3,5-5c0-2.8-2.3-5-5-5c-2.8,0-5,2.3-5,5C34,26.3,36.3,28.5,39.1,28.5z"/>
	</g>
	<g>
		<path class="st5" d="M105.3,64.1c2.8,0,5-2.3,5-5c0-2.8-2.3-5-5-5c-2.8,0-5,2.3-5,5C100.3,61.8,102.6,64.1,105.3,64.1z"/>
	</g>
	<g>
		<circle class="st5" cx="60.4" cy="14.1" r="5"/>
	</g>
	<g>
		<path class="st5" d="M42.6,59.7c0-2.8-2.3-5-5-5c-2.8,0-5,2.3-5,5s2.3,5,5,5C40.3,64.7,42.6,62.5,42.6,59.7z"/>
	</g>
	<g>
		<path class="st5" d="M85.5,19.8c2.8,0,5-2.3,5-5c0-2.8-2.3-5-5-5c-2.8,0-5,2.3-5,5C80.4,17.5,82.7,19.8,85.5,19.8z"/>
	</g>
	<g>
		<ellipse transform="matrix(0.7071 -0.7071 0.7071 0.7071 12.9931 80.9314)" class="st5" cx="104.2" cy="24.8" rx="5" ry="5"/>
	</g>
	<g>
		<ellipse transform="matrix(0.3827 -0.9239 0.9239 0.3827 -4.2747 69.5736)" class="st5" cx="49.9" cy="38" rx="5" ry="5"/>
	</g>
	<g>
		<ellipse transform="matrix(0.7071 -0.7071 0.7071 0.7071 -0.7801 78.2774)" class="st5" cx="94.1" cy="40.1" rx="5" ry="5"/>
	</g>
	<g>
		<ellipse transform="matrix(0.9871 -0.1602 0.1602 0.9871 -6.5282 4.5748)" class="st5" cx="25.1" cy="42.8" rx="5" ry="5"/>
	</g>
	<g>
		<ellipse transform="matrix(0.3827 -0.9239 0.9239 0.3827 -54.7903 71.8002)" class="st5" cx="26.3" cy="76.9" rx="5" ry="5"/>
	</g>
	<g>
		<path class="st5" d="M73.6,36.3c2.8,0,5-2.3,5-5c0-2.8-2.3-5-5-5c-2.8,0-5,2.3-5,5C68.6,34,70.8,36.3,73.6,36.3z"/>
	</g>
</g>
</svg>
