<?xml version="1.0" encoding="utf-8"?>
<!-- Generator: Adobe Illustrator 25.4.1, SVG Export Plug-In . SVG Version: 6.00 Build 0)  -->
<svg version="1.1" id="レイヤー_1" xmlns="http://www.w3.org/2000/svg" xmlns:xlink="http://www.w3.org/1999/xlink" x="0px"
	 y="0px" viewBox="0 0 141.7 141.7" style="enable-background:new 0 0 141.7 141.7;" xml:space="preserve">
<style type="text/css">
	.st0{fill:#EA8C3A;}
	.st1{fill:#B5B5B6;}
	.st2{fill:#00A7CB;}
	.st3{fill:#FAC311;}
	.st4{fill:#FFFFFF;}
	.st5{fill:#A9C3CB;}
</style>
<g>
	<g>
		<path class="st2" d="M17.9,69.8c0.9,0.5,2,0.2,2.4-0.7l22.3-39c0.5-0.9,0.2-2-0.7-2.4c-0.9-0.5-2-0.2-2.4,0.7l-22.3,39
			C16.7,68.3,17,69.3,17.9,69.8z"/>
	</g>
	<g>
		<path class="st2" d="M43.6,51.7l12.3-21.5c0.5-0.9,0.2-2-0.7-2.4c-0.9-0.5-2-0.2-2.4,0.7L38,54.3C39.9,53.3,41.7,52.5,43.6,51.7z"
			/>
	</g>
	<g>
		<path class="st2" d="M28.6,27.7c-0.9-0.5-2-0.2-2.4,0.7l-22.3,39c-0.5,0.9-0.2,2,0.7,2.4c0.9,0.5,2,0.2,2.4-0.7l22.3-39
			C29.8,29.3,29.5,28.2,28.6,27.7z"/>
	</g>
	<g>
		<path class="st2" d="M59,48.1L59,48.1l0-5.6c0-1.3,0.5-2.4,1.4-3.3c0.8-0.8,2-1.4,3.3-1.4c0.4,0,0.7,0.1,1.1,0.1l4.5-7.9
			c0.5-0.9,0.2-2-0.7-2.4c-0.9-0.5-2-0.2-2.4,0.7L54.6,48.7C56,48.4,57.5,48.2,59,48.1z"/>
	</g>
	<g>
		<path class="st2" d="M68.3,48.1c1.3,0.1,2.6,0.3,3.8,0.5l10.5-18.4c0.5-0.9,0.2-2-0.7-2.4c-0.9-0.5-2-0.2-2.4,0.7L68.3,48.1
			L68.3,48.1z"/>
	</g>
	<g>
		<path class="st2" d="M83.7,51.7l12.3-21.5c0.5-0.9,0.2-2-0.7-2.4c-0.9-0.5-2-0.2-2.4,0.7L80.2,50.5C81.4,50.9,82.5,51.3,83.7,51.7
			z"/>
	</g>
	<g>
		<path class="st2" d="M93.9,57.1l15.4-26.9c0.5-0.9,0.2-2-0.7-2.4c-0.9-0.5-2-0.2-2.4,0.7L90.9,55.2C91.9,55.8,92.9,56.4,93.9,57.1
			z"/>
	</g>
	<g>
		<path class="st2" d="M102.9,64.6l19.7-34.5c0.5-0.9,0.2-2-0.7-2.4c-0.9-0.5-2-0.2-2.4,0.7l-19.2,33.7
			C101.2,62.9,102.1,63.8,102.9,64.6z"/>
	</g>
	<g>
		<path class="st2" d="M135.3,27.7c-0.9-0.5-2-0.2-2.4,0.7l-22.3,39c-0.5,0.9-0.2,2,0.7,2.4c0.9,0.5,2,0.2,2.4-0.7l22.3-39
			C136.4,29.3,136.1,28.2,135.3,27.7z"/>
	</g>
	<g>
		<path class="st2" d="M114.1,91.7c-0.1-0.2-0.1-0.5-0.2-0.7c0-0.2-0.1-0.4-0.1-0.6c-0.1-0.3-0.1-0.6-0.2-0.9
			c-2.2-8.4-6.4-16-12.2-22.2c-0.8-0.9-1.7-1.8-2.6-2.6c-0.7-0.7-1.5-1.4-2.3-2c-1.3-1.1-2.7-2.1-4.1-3c-1-0.7-2-1.3-3-1.9
			c-2.3-1.3-4.7-2.5-7.2-3.5c-1.1-0.4-2.3-0.8-3.5-1.2c-2.6-0.8-5.4-1.4-8.2-1.8c-1.3-0.2-2.6-0.3-3.9-0.4c-0.4,0-0.9-0.1-1.3-0.1
			v-8.3c0-0.9-0.7-1.7-1.7-1.7c-0.2,0-0.4,0-0.6,0.1c-0.6,0.2-1.1,0.8-1.1,1.6v0.4v8c-1.6,0.1-3.2,0.2-4.8,0.4
			c-1.5,0.2-3.1,0.5-4.6,0.8c-4,0.9-7.9,2.2-11.5,4c-2.1,1-4.2,2.2-6.1,3.5c-1.5,1-2.9,2-4.2,3.1c-8.2,6.8-14.3,16.2-17.1,26.8
			c-0.1,0.3-0.1,0.6-0.2,0.9c0,0.2-0.1,0.4-0.1,0.6c-0.1,0.2-0.1,0.5-0.2,0.7c0,0.1-0.1,0.3-0.1,0.4c-0.1,0.4,0.1,0.9,0.5,1.1
			c0.4,0.2,0.9,0.1,1.1-0.3c0.1-0.1,0.2-0.2,0.3-0.3c0.1-0.1,0.1-0.1,0.2-0.2c0.2-0.3,0.4-0.5,0.7-0.8c0.2-0.2,0.3-0.4,0.5-0.6
			c3.4-3.6,8.2-5.8,13.5-5.8c3.4,0,6.6,0.9,9.4,2.5c2.8,1.6,5.1,3.9,6.7,6.6c0.2,0.3,0.5,0.5,0.8,0.5c0.3,0,0.6-0.2,0.8-0.5
			c1.6-2.7,3.9-5,6.7-6.6c1.5-0.9,3.1-1.5,4.8-1.9c1-0.2,1.9-0.4,3-0.5v3v30.1v0c0,1.8,0.7,3.5,1.9,4.7c1.2,1.2,2.9,1.9,4.7,1.9
			c1.8,0,3.5-0.7,4.7-1.9c1.2-1.2,1.9-2.9,1.9-4.7c0-0.9-0.7-1.7-1.7-1.7c-0.9,0-1.7,0.7-1.7,1.7c0,0.5-0.1,0.9-0.3,1.3
			c-0.2,0.6-0.7,1.1-1.2,1.4c-0.5,0.4-1.2,0.6-1.8,0.6c-0.5,0-0.9-0.1-1.3-0.3c-0.6-0.2-1.1-0.7-1.4-1.2c-0.4-0.5-0.6-1.2-0.6-1.8
			V88.2v-3c1,0.1,2,0.3,3,0.5c1.7,0.4,3.3,1.1,4.8,1.9c2.8,1.6,5.1,3.9,6.7,6.6c0.2,0.3,0.5,0.5,0.8,0.5c0.3,0,0.6-0.2,0.8-0.5
			c1.6-2.7,3.9-5,6.7-6.6c2.8-1.6,6-2.5,9.4-2.5c3.1,0,6,0.8,8.6,2.1c1.8,1,3.5,2.2,4.9,3.7c0.2,0.2,0.4,0.4,0.5,0.6
			c0.2,0.3,0.4,0.5,0.7,0.8c0.1,0.1,0.1,0.1,0.2,0.2c0,0,0,0,0,0c0.1,0.1,0.2,0.2,0.3,0.3c0.3,0.4,0.7,0.5,1.1,0.3
			c0.4-0.2,0.6-0.6,0.5-1.1C114.2,92,114.1,91.9,114.1,91.7z"/>
	</g>
</g>
</svg>
