<?xml version="1.0" encoding="utf-8"?>
<!-- Generator: Adobe Illustrator 25.4.1, SVG Export Plug-In . SVG Version: 6.00 Build 0)  -->
<svg version="1.1" id="レイヤー_1" xmlns="http://www.w3.org/2000/svg" xmlns:xlink="http://www.w3.org/1999/xlink" x="0px"
	 y="0px" viewBox="0 0 141.7 141.7" style="enable-background:new 0 0 141.7 141.7;" xml:space="preserve">
<style type="text/css">
	.st0{fill:#EA8C3A;}
	.st1{fill:#B5B5B6;}
	.st2{fill:#00A7CB;}
	.st3{fill:#FAC311;}
	.st4{fill:#FFFFFF;}
	.st5{fill:#A9C3CB;}
</style>
<g>
	<g>
		<path class="st5" d="M119.8,53c2.3-3.3,3.7-7.3,3.7-11.7c0-11.3-9.2-20.4-20.4-20.4S82.6,30,82.6,41.3c0,4.3,1.4,8.4,3.7,11.7
			c0,0-0.1,0.1-0.1,0.1c4.1,2,7.9,4.4,11.4,7.3c9.5,7.9,16.4,18.9,19,31.5c0,0,0,0,0,0l0,0c0,0,0,0,0,0c0,0,0,0,0,0
			c0.1,0.3,0.1,0.5,0.1,0.8c0,0.4-0.1,0.9-0.2,1.2c7.3-4.5,12.2-12.5,12.2-21.7C128.5,64.6,125.1,57.7,119.8,53z M96.2,31.4
			c1.3,0,2.3,1,2.3,2.3s-1,2.3-2.3,2.3c-1.3,0-2.3-1-2.3-2.3S94.9,31.4,96.2,31.4z M111.5,43.9c-0.3,2.1-1.4,3.9-2.9,5.2
			c-1.5,1.3-3.5,2.1-5.6,2.1c-2.1,0-4.1-0.8-5.6-2.1c-1.5-1.3-2.6-3.1-2.9-5.2c0,0,0,0,0,0v0l0,0c-0.1-0.7,0.4-1.4,1.1-1.5
			c0.7-0.1,1.4,0.4,1.5,1.1c0.2,1.4,0.9,2.7,2,3.6c1,0.9,2.4,1.4,3.9,1.4c1.5,0,2.8-0.5,3.8-1.4c1-0.9,1.8-2.1,2-3.5
			c0.1-0.7,0.8-1.2,1.5-1.1C111.1,42.5,111.6,43.2,111.5,43.9z M109.8,36c-1.3,0-2.3-1-2.3-2.3s1-2.3,2.3-2.3c1.3,0,2.3,1,2.3,2.3
			S111.1,36,109.8,36z"/>
	</g>
</g>
<g>
	<path class="st2" d="M113.4,92.1c-0.1-0.2-0.1-0.5-0.2-0.7c0-0.2-0.1-0.4-0.1-0.6c-0.1-0.3-0.1-0.6-0.2-0.9
		c-0.5-1.9-1.1-3.7-1.8-5.5c-3.2-8.5-8.7-16-15.6-21.7c-3.5-2.9-7.5-5.4-11.7-7.3C77.8,52.6,71.1,51,64,50.8v-8.4
		c0-0.9-0.8-1.7-1.7-1.7c-0.9,0-1.7,0.8-1.7,1.7v8.4c-12,0.4-22.9,4.8-31.6,11.9C20.7,69.6,14.6,79,11.8,89.8
		c-0.1,0.3-0.1,0.6-0.2,0.9c0,0.2-0.1,0.4-0.1,0.6c-0.1,0.2-0.1,0.5-0.2,0.7c0,0.1-0.1,0.3-0.1,0.4c-0.1,0.4,0.1,0.9,0.6,1.1
		c0.4,0.2,0.9,0.1,1.2-0.3c0.1-0.1,0.2-0.2,0.3-0.3c0.1-0.1,0.1-0.1,0.2-0.2c0.2-0.3,0.4-0.5,0.7-0.8c0.2-0.2,0.3-0.4,0.5-0.6
		c3.4-3.6,8.3-5.9,13.7-5.9c3.5,0,6.7,0.9,9.5,2.6c2.8,1.6,5.1,4,6.8,6.7c0.2,0.3,0.5,0.5,0.8,0.5c0.3,0,0.7-0.2,0.8-0.5
		c1.6-2.8,4-5.1,6.8-6.7c1.5-0.9,3.1-1.5,4.8-2c1-0.2,2-0.4,3-0.5v3V119v0c0,1.8,0.8,3.5,2,4.7c1.2,1.2,2.9,2,4.7,2
		c1.8,0,3.5-0.8,4.7-2c1.2-1.2,2-2.9,2-4.7c0-0.9-0.8-1.7-1.7-1.7c-0.9,0-1.7,0.8-1.7,1.7c0,0.5-0.1,0.9-0.3,1.3
		c-0.3,0.6-0.7,1.1-1.2,1.5c-0.5,0.4-1.2,0.6-1.9,0.6c-0.5,0-0.9-0.1-1.3-0.3c-0.6-0.3-1.1-0.7-1.5-1.2c-0.4-0.5-0.6-1.2-0.6-1.9
		V88.5v-3c1,0.1,2,0.3,3,0.5c1.7,0.4,3.3,1.1,4.8,2c2.8,1.6,5.1,4,6.8,6.7c0.2,0.3,0.5,0.5,0.8,0.5c0.1,0,0.2,0,0.3-0.1
		c0.2-0.1,0.4-0.2,0.5-0.4c1.1-1.9,2.6-3.6,4.3-5c0.8-0.6,1.6-1.2,2.5-1.7c2.8-1.6,6-2.6,9.5-2.6c3.1,0,6.1,0.8,8.7,2.1
		c1.9,1,3.5,2.2,4.9,3.7c0.2,0.2,0.4,0.4,0.5,0.6c0.2,0.3,0.4,0.5,0.7,0.8c0.1,0.1,0.1,0.1,0.2,0.2c0.1,0.1,0.2,0.2,0.3,0.3
		c0.3,0.4,0.7,0.5,1.2,0.3c0.4-0.2,0.6-0.6,0.6-1.1C113.5,92.4,113.4,92.2,113.4,92.1z"/>
</g>
</svg>
