<?xml version="1.0" encoding="utf-8"?>
<!-- Generator: Adobe Illustrator 25.4.1, SVG Export Plug-In . SVG Version: 6.00 Build 0)  -->
<svg version="1.1" id="レイヤー_1" xmlns="http://www.w3.org/2000/svg" xmlns:xlink="http://www.w3.org/1999/xlink" x="0px"
	 y="0px" viewBox="0 0 141.7 141.7" style="enable-background:new 0 0 141.7 141.7;" xml:space="preserve">
<style type="text/css">
	.st0{fill:#EA8C3A;}
	.st1{fill:#B5B5B6;}
	.st2{fill:#00A7CB;}
	.st3{fill:#FAC311;}
	.st4{fill:#FFFFFF;}
	.st5{fill:#A9C3CB;}
</style>
<g>
	<g>
		<path class="st1" d="M124,50.5c-0.4,0-0.8,0-1.2,0.1c-2.4-10.2-11.6-17.7-22.5-17.7c-10.4,0-19.2,6.8-22.1,16.3
			c-2.1,0.1-4.1,0.7-5.9,1.6c2.8,1.5,5.4,3.3,7.8,5.3c7.2,6,12.7,14,15.5,23.2H124c7.9,0,14.3-6.4,14.3-14.3S131.9,50.5,124,50.5z"
			/>
	</g>
	<g>
		<path class="st2" d="M94.2,84c0-0.2-0.1-0.4-0.1-0.7l0,0c0-0.2-0.1-0.4-0.1-0.5c-0.1-0.3-0.1-0.5-0.2-0.8c-0.3-1-0.5-2-0.9-2.9
			c-0.2-0.7-0.4-1.3-0.7-1.9c-2.9-7.5-7.7-14.1-13.8-19.2c-2.7-2.2-5.6-4.1-8.7-5.7c-5.8-2.9-12.3-4.7-19.3-4.9V40
			c0-0.8-0.7-1.5-1.5-1.5c-0.8,0-1.5,0.7-1.5,1.5v7.5C37,47.8,27.3,51.7,19.6,58C12.2,64.1,6.8,72.5,4.3,82
			c-0.1,0.3-0.1,0.5-0.2,0.8C4.1,83,4,83.2,4,83.4c0,0.2-0.1,0.4-0.1,0.6c0,0.1-0.1,0.2-0.1,0.4c-0.1,0.4,0.1,0.8,0.5,0.9
			c0.4,0.2,0.8,0,1-0.3c0.1-0.1,0.2-0.2,0.2-0.3c0-0.1,0.1-0.1,0.1-0.2c0.2-0.2,0.4-0.5,0.6-0.7c0.2-0.2,0.3-0.3,0.5-0.5
			c3-3.2,7.3-5.2,12.1-5.2c3.1,0,5.9,0.8,8.4,2.3c2.5,1.4,4.5,3.5,6,6c0.2,0.3,0.4,0.4,0.7,0.4c0.3,0,0.6-0.2,0.7-0.4
			c1.5-2.5,3.5-4.5,6-6c1.3-0.8,2.8-1.4,4.3-1.7c0.9-0.2,1.7-0.4,2.7-0.5v2.7v26.9v0c0,1.6,0.7,3.1,1.7,4.2c1.1,1.1,2.6,1.7,4.2,1.7
			c1.6,0,3.1-0.7,4.2-1.7c1.1-1.1,1.7-2.6,1.7-4.2c0-0.8-0.7-1.5-1.5-1.5c-0.8,0-1.5,0.7-1.5,1.5c0,0.4-0.1,0.8-0.2,1.1
			c-0.2,0.5-0.6,1-1.1,1.3c-0.5,0.3-1,0.5-1.6,0.5c-0.4,0-0.8-0.1-1.1-0.2c-0.5-0.2-1-0.6-1.3-1.1c-0.3-0.5-0.5-1-0.5-1.6V80.9v-2.7
			c0.9,0.1,1.8,0.2,2.7,0.5c1.5,0.4,2.9,1,4.3,1.7c2.5,1.4,4.5,3.5,6,6c0.2,0.3,0.4,0.4,0.7,0.4c0.1,0,0.2,0,0.3,0
			c0.2-0.1,0.4-0.2,0.5-0.4c1.5-2.5,3.5-4.5,6-6c1.4-0.8,2.9-1.4,4.5-1.8c1.3-0.3,2.6-0.5,3.9-0.5c2,0,3.9,0.3,5.6,1
			c0.7,0.3,1.4,0.6,2.1,0.9c1.6,0.9,3.1,2,4.4,3.3c0.2,0.2,0.3,0.3,0.5,0.5c0.2,0.2,0.4,0.5,0.6,0.7c0,0.1,0.1,0.1,0.1,0.2
			c0.1,0.1,0.2,0.2,0.2,0.3c0.2,0.3,0.7,0.4,1,0.3c0.4-0.2,0.6-0.6,0.5-0.9C94.3,84.3,94.2,84.2,94.2,84z"/>
	</g>
</g>
</svg>
