<?xml version="1.0" encoding="utf-8"?>
<!-- Generator: Adobe Illustrator 25.4.1, SVG Export Plug-In . SVG Version: 6.00 Build 0)  -->
<svg version="1.1" id="レイヤー_1" xmlns="http://www.w3.org/2000/svg" xmlns:xlink="http://www.w3.org/1999/xlink" x="0px"
	 y="0px" viewBox="0 0 141.7 141.7" style="enable-background:new 0 0 141.7 141.7;" xml:space="preserve">
<style type="text/css">
	.st0{fill:#EA8C3A;}
	.st1{fill:#B5B5B6;}
	.st2{fill:#00A7CB;}
	.st3{fill:#FAC311;}
	.st4{fill:#FFFFFF;}
	.st5{fill:#A9C3CB;}
</style>
<g>
	<path class="st4" d="M80.5,40.5c1.8,0,3.2-1.4,3.2-3.2c0-1.8-1.4-3.2-3.2-3.2c-1.8,0-3.2,1.4-3.2,3.2
		C77.3,39.1,78.7,40.5,80.5,40.5z"/>
	<circle class="st4" cx="61.2" cy="37.3" r="3.2"/>
	<path class="st4" d="M60.5,49.5c-1,0.2-1.7,1.1-1.6,2.2l0,0c0.4,2.9,1.9,5.5,4,7.3c2.1,1.8,4.9,2.9,7.9,2.9c3,0,5.8-1.1,7.9-2.9
		c2.1-1.8,3.6-4.4,4-7.3c0.2-1-0.5-2-1.6-2.2c-1-0.2-2,0.5-2.2,1.6c-0.3,2-1.3,3.7-2.8,5c-1.5,1.3-3.3,2-5.4,2c-2.1,0-4-0.8-5.4-2
		c-1.5-1.3-2.5-3-2.8-5C62.5,50,61.6,49.3,60.5,49.5z"/>
	<g>
		<g>
			<path class="st5" d="M35,91.6c0,19.8,16.1,35.9,35.9,35.9s35.9-16.1,35.9-35.9c0-10.8-4.8-20.5-12.3-27
				c3.3-4.7,5.2-10.3,5.2-16.5c0-15.9-12.9-28.8-28.8-28.8c-15.9,0-28.8,12.9-28.8,28.8c0,6.1,1.9,11.8,5.2,16.5
				C39.7,71.1,35,80.8,35,91.6z M80.5,34.1c1.8,0,3.2,1.4,3.2,3.2c0,1.8-1.4,3.2-3.2,3.2c-1.8,0-3.2-1.4-3.2-3.2
				C77.3,35.5,78.7,34.1,80.5,34.1z M65.4,56.1c1.5,1.3,3.3,2,5.4,2c2.1,0,4-0.8,5.4-2c1.5-1.3,2.5-3,2.8-5c0.2-1,1.1-1.7,2.2-1.6
				c1,0.2,1.7,1.1,1.6,2.2c-0.4,2.9-1.9,5.5-4,7.3c-2.1,1.8-4.9,2.9-7.9,2.9c-3,0-5.8-1.1-7.9-2.9c-2.1-1.8-3.6-4.4-4-7.3l0,0
				c-0.2-1,0.6-2,1.6-2.2c1-0.2,2,0.6,2.2,1.6C63,53.1,64,54.8,65.4,56.1z M61.2,34.1c1.8,0,3.2,1.4,3.2,3.2c0,1.8-1.4,3.2-3.2,3.2
				c-1.8,0-3.2-1.4-3.2-3.2C58,35.5,59.5,34.1,61.2,34.1z"/>
		</g>
	</g>
</g>
</svg>
