<?xml version="1.0" encoding="utf-8"?>
<!-- Generator: Adobe Illustrator 25.4.1, SVG Export Plug-In . SVG Version: 6.00 Build 0)  -->
<svg version="1.1" id="レイヤー_1" xmlns="http://www.w3.org/2000/svg" xmlns:xlink="http://www.w3.org/1999/xlink" x="0px"
	 y="0px" viewBox="0 0 141.7 141.7" style="enable-background:new 0 0 141.7 141.7;" xml:space="preserve">
<style type="text/css">
	.st0{fill:#EA8C3A;}
	.st1{fill:#B5B5B6;}
	.st2{fill:#00A7CB;}
	.st3{fill:#FAC311;}
	.st4{fill:#FFFFFF;}
	.st5{fill:#A9C3CB;}
</style>
<g>
	<g>
		<path class="st2" d="M126.9,98.8c0-0.2-0.1-0.3-0.1-0.5c-0.1-0.3-0.1-0.5-0.2-0.8c0-0.2-0.1-0.4-0.2-0.6c-0.1-0.3-0.2-0.6-0.2-0.9
			c-3-11.6-9.6-21.7-18.6-29.1c-2.3-1.9-4.8-3.6-7.4-5.2l-2.1,2.5L81.6,84c-0.9,1.1-2.5,1.3-3.7,0.5c-1.2-0.8-1.6-2.3-1-3.6
			l10.6-21.4l1.4-2.9H76.7c-1.1,0-2.1-0.6-2.6-1.6c-0.1-0.3-0.2-0.7-0.2-1c0,0,0,0,0,0v0c0-0.1,0-0.2,0-0.3v-8.7
			c0-1-0.8-1.8-1.8-1.8c-1,0-1.8,0.8-1.8,1.8V54c-12.8,0.4-24.6,5.1-33.9,12.8c-9,7.4-15.6,17.5-18.6,29.1c-0.1,0.3-0.2,0.6-0.2,0.9
			c-0.1,0.2-0.1,0.4-0.2,0.6c-0.1,0.3-0.1,0.5-0.2,0.8c0,0,0,0,0,0c0,0.2-0.1,0.3-0.1,0.5c-0.1,0.5,0.2,1,0.6,1.1
			c0.4,0.2,1,0.1,1.2-0.3c0.1-0.1,0.2-0.2,0.3-0.4c0.1-0.1,0.1-0.2,0.2-0.2c0.2-0.3,0.5-0.6,0.7-0.9c0.2-0.2,0.4-0.4,0.6-0.6
			c3.7-3.9,8.9-6.3,14.6-6.3c3.7,0,7.2,1,10.2,2.7c3,1.7,5.5,4.2,7.3,7.2c0.2,0.3,0.5,0.5,0.9,0.5s0.7-0.2,0.9-0.5
			c1.8-3,4.3-5.5,7.3-7.2c1.6-0.9,3.3-1.6,5.2-2.1c1-0.3,2.1-0.5,3.2-0.5v3.2v32.6v0c0,2,0.8,3.8,2.1,5.1c1.3,1.3,3.1,2.1,5.1,2.1
			c2,0,3.8-0.8,5.1-2.1c1.3-1.3,2.1-3.1,2.1-5.1c0-1-0.8-1.8-1.8-1.8c-1,0-1.8,0.8-1.8,1.8c0,0.5-0.1,1-0.3,1.4
			c-0.3,0.6-0.7,1.2-1.3,1.6c-0.6,0.4-1.2,0.6-2,0.6c-0.5,0-1-0.1-1.4-0.3c-0.6-0.3-1.2-0.7-1.6-1.3c-0.4-0.6-0.6-1.2-0.6-2V94.5
			v-3.2c1.1,0.1,2.2,0.3,3.2,0.6c1.8,0.5,3.6,1.2,5.2,2.1c3,1.7,5.5,4.2,7.3,7.2c0.2,0.3,0.5,0.5,0.9,0.5c0.4,0,0.7-0.2,0.9-0.5
			c1.8-3,4.3-5.5,7.3-7.2c3-1.7,6.5-2.7,10.2-2.7c3.4,0,6.6,0.8,9.4,2.3c2,1,3.8,2.4,5.3,4c0.2,0.2,0.4,0.4,0.6,0.6
			c0.2,0.3,0.5,0.6,0.7,0.9c0.1,0.1,0.1,0.2,0.2,0.2c0.1,0.1,0.2,0.2,0.3,0.4c0.3,0.4,0.8,0.5,1.2,0.3
			C126.8,99.7,127,99.3,126.9,98.8z"/>
	</g>
	<g>
		<polygon class="st3" points="90.9,53.8 93.6,53.8 93.2,54.6 91.7,57.5 90.3,60.4 84.8,71.4 79.5,82.2 87.2,73 95.7,62.8 
			97.9,60.3 100,57.7 111.8,43.6 94.9,43.6 112.8,11.6 78.9,51.2 77.1,53.3 76.7,53.8 77.1,53.8 		"/>
	</g>
</g>
</svg>
