<?xml version="1.0" encoding="utf-8"?>
<!-- Generator: Adobe Illustrator 25.4.1, SVG Export Plug-In . SVG Version: 6.00 Build 0)  -->
<svg version="1.1" id="レイヤー_1" xmlns="http://www.w3.org/2000/svg" xmlns:xlink="http://www.w3.org/1999/xlink" x="0px"
	 y="0px" viewBox="0 0 141.7 141.7" style="enable-background:new 0 0 141.7 141.7;" xml:space="preserve">
<style type="text/css">
	.st0{fill:#EA8C3A;}
	.st1{fill:#B5B5B6;}
	.st2{fill:#00A7CB;}
	.st3{fill:#FAC311;}
	.st4{fill:#FFFFFF;}
	.st5{fill:#A9C3CB;}
</style>
<g>
	<path class="st2" d="M19.5,72c0.9,0.5,1.9,0.2,2.4-0.7l22.1-38.8c0.5-0.9,0.2-1.9-0.7-2.4c-0.9-0.5-1.9-0.2-2.4,0.7L18.8,69.5
		C18.3,70.4,18.6,71.5,19.5,72z"/>
</g>
<g>
	<path class="st2" d="M45.1,54l12.2-21.4c0.5-0.9,0.2-1.9-0.7-2.4c-0.9-0.5-1.9-0.2-2.4,0.7L39.5,56.5C41.3,55.6,43.2,54.7,45.1,54z
		"/>
</g>
<g>
	<path class="st2" d="M30.1,30.1c-0.9-0.5-1.9-0.2-2.4,0.7L5.6,69.5c-0.5,0.9-0.2,1.9,0.7,2.4c0.9,0.5,1.9,0.2,2.4-0.7l22.1-38.8
		C31.3,31.7,31,30.6,30.1,30.1z"/>
</g>
<g>
	<path class="st2" d="M60.4,50.4L60.4,50.4l0-5.5c0-1.3,0.5-2.4,1.3-3.2c0.8-0.8,2-1.3,3.2-1.3c0.4,0,0.7,0.1,1.1,0.1l4.5-7.9
		c0.5-0.9,0.2-1.9-0.7-2.4c-0.9-0.5-1.9-0.2-2.4,0.7L56,50.9C57.4,50.7,58.9,50.5,60.4,50.4z"/>
</g>
<g>
	<path class="st2" d="M69.6,50.4c1.3,0.1,2.6,0.3,3.8,0.5l10.4-18.3c0.5-0.9,0.2-1.9-0.7-2.4c-0.9-0.5-1.9-0.2-2.4,0.7L69.6,50.4
		L69.6,50.4z"/>
</g>
<g>
	<path class="st2" d="M104.1,66.8l19.6-34.3c0.5-0.9,0.2-1.9-0.7-2.4c-0.9-0.5-1.9-0.2-2.4,0.7l-19.1,33.5
		C102.3,65.1,103.2,65.9,104.1,66.8z"/>
</g>
<g>
	<path class="st2" d="M136.2,30.1c-0.9-0.5-1.9-0.2-2.4,0.7l-22.1,38.8c-0.5,0.9-0.2,1.9,0.7,2.4c0.9,0.5,1.9,0.2,2.4-0.7l22.1-38.8
		C137.4,31.7,137.1,30.6,136.2,30.1z"/>
</g>
<g>
	<path class="st2" d="M115.2,93.8c-0.1-0.2-0.1-0.5-0.2-0.7c0,0,0,0,0,0c0-0.2-0.1-0.4-0.1-0.6c-0.1-0.3-0.1-0.6-0.2-0.9
		c-2.2-8.4-6.4-15.9-12.1-22.1c-0.8-0.9-1.7-1.8-2.6-2.6c-0.7-0.7-1.5-1.4-2.3-2c-0.5-0.5-1.1-0.9-1.7-1.3l-1.9,2.3l-12,14.4
		c-0.9,1.1-2.4,1.3-3.6,0.5c-1.1-0.8-1.6-2.2-0.9-3.5l8.2-16.5l1.3-2.6c-1.2-0.6-2.4-1.1-3.7-1.6c-1.1-0.4-2.3-0.8-3.4-1.2
		c-2.6-0.8-5.4-1.4-8.2-1.8c-1.3-0.2-2.6-0.3-3.9-0.4c-0.4,0-0.9-0.1-1.3-0.1v-8.3c0-0.9-0.7-1.6-1.6-1.6c-0.2,0-0.4,0-0.6,0.1
		c-0.6,0.2-1.1,0.8-1.1,1.5v0.4v7.9c-1.6,0.1-3.2,0.2-4.7,0.4c-1.5,0.2-3.1,0.5-4.5,0.8c-4,0.9-7.8,2.2-11.4,3.9
		c-2.1,1-4.2,2.2-6.1,3.5c-1.5,1-2.9,2-4.2,3.1c-8.2,6.8-14.3,16.1-17,26.7c-0.1,0.3-0.1,0.6-0.2,0.9c0,0.2-0.1,0.4-0.1,0.6
		c-0.1,0.2-0.1,0.5-0.2,0.7c0,0.1-0.1,0.3-0.1,0.4c-0.1,0.4,0.1,0.9,0.5,1c0.4,0.2,0.9,0,1.1-0.3c0.1-0.1,0.2-0.2,0.3-0.3
		c0.1-0.1,0.1-0.1,0.2-0.2c0.2-0.3,0.4-0.5,0.7-0.8c0.2-0.2,0.3-0.4,0.5-0.6c3.4-3.5,8.1-5.8,13.4-5.8c3.4,0,6.6,0.9,9.3,2.5
		c2.7,1.6,5,3.9,6.6,6.6c0.2,0.3,0.5,0.5,0.8,0.5c0.3,0,0.6-0.2,0.8-0.5c1.6-2.7,3.9-5,6.6-6.6c1.5-0.9,3.1-1.5,4.7-1.9
		c1-0.2,1.9-0.4,2.9-0.5v3v29.9v0c0,1.8,0.7,3.5,1.9,4.6c1.2,1.2,2.8,1.9,4.6,1.9c1.8,0,3.5-0.7,4.6-1.9c1.2-1.2,1.9-2.8,1.9-4.6
		c0-0.9-0.7-1.6-1.6-1.6c-0.9,0-1.6,0.7-1.6,1.6c0,0.5-0.1,0.9-0.3,1.3c-0.2,0.6-0.7,1.1-1.2,1.4c-0.5,0.4-1.1,0.6-1.8,0.6
		c-0.5,0-0.9-0.1-1.3-0.3c-0.6-0.2-1.1-0.7-1.4-1.2c-0.4-0.5-0.6-1.1-0.6-1.8V90.3v-3c1,0.1,2,0.3,2.9,0.5c1.7,0.4,3.3,1.1,4.7,1.9
		c2.7,1.6,5,3.9,6.6,6.6c0.2,0.3,0.5,0.5,0.8,0.5c0.3,0,0.6-0.2,0.8-0.5c1.6-2.7,3.9-5,6.6-6.6c2.7-1.6,5.9-2.5,9.3-2.5
		c3.1,0,6,0.8,8.6,2.1c1.8,1,3.5,2.2,4.9,3.7c0.2,0.2,0.4,0.4,0.5,0.6c0.2,0.3,0.4,0.5,0.7,0.8c0.1,0.1,0.1,0.1,0.2,0.2c0,0,0,0,0,0
		c0.1,0.1,0.2,0.2,0.3,0.3c0.3,0.4,0.7,0.5,1.1,0.3c0.4-0.2,0.6-0.6,0.5-1C115.2,94,115.2,93.9,115.2,93.8z"/>
</g>
<g>
	<polygon class="st3" points="82.4,51.1 86.5,51.1 93.6,51.1 90.8,56.7 89.5,59.3 88.2,62 85.1,68.1 80,78.4 87.4,69.6 91.9,64.2 
		93.8,62 95.7,59.7 111.1,41.3 94.8,41.3 112.1,10.4 95.4,29.9 92.7,33 77.3,51.1 	"/>
</g>
</svg>
